<?xml version="1.0" encoding="UTF-8"?>
<svg xmlns="http://www.w3.org/2000/svg" xmlns:xlink="http://www.w3.org/1999/xlink" viewBox="70 82 178 163">
<path fill-rule="nonzero" fill="rgb(17.060852%, 21.585083%, 51.881409%)" fill-opacity="1" d="M 216.273438 120.273438 C 216.316406 101.167969 192.613281 85.542969 163.328125 85.476562 C 134.046875 85.410156 110.277344 100.929688 110.234375 120.035156 C 110.230469 120.53125 110.222656 121.890625 110.222656 122.066406 C 110.175781 142.335938 130.886719 158.796875 163.160156 158.871094 C 195.628906 158.945312 216.222656 142.578125 216.269531 122.308594 Z M 216.273438 120.273438 "/>
<path fill-rule="nonzero" fill="rgb(29.02832%, 69.143677%, 90.763855%)" fill-opacity="1" d="M 214.246094 120.253906 C 214.203125 138.261719 191.34375 152.816406 163.1875 152.753906 C 135.03125 152.6875 112.242188 138.035156 112.28125 120.023438 C 112.320312 102.011719 135.179688 87.460938 163.335938 87.523438 C 191.492188 87.585938 214.285156 102.238281 214.246094 120.253906 "/>
<path fill-rule="nonzero" fill="rgb(100%, 100%, 100%)" fill-opacity="1" d="M 146.355469 109.8125 C 146.328125 109.863281 145.820312 110.386719 146.148438 110.8125 C 146.953125 111.839844 149.4375 112.433594 151.949219 111.878906 C 153.445312 111.546875 155.367188 110.023438 157.226562 108.554688 C 159.246094 106.957031 161.246094 105.363281 163.257812 104.730469 C 165.382812 104.058594 166.746094 104.351562 167.644531 104.625 C 168.632812 104.921875 169.792969 105.574219 171.640625 106.96875 C 175.121094 109.597656 189.121094 121.871094 191.539062 123.996094 C 193.492188 123.117188 202.179688 119.402344 213.972656 116.832031 C 212.960938 110.542969 209.152344 104.785156 203.363281 100.066406 C 195.273438 103.441406 185.398438 105.1875 175.75 100.453125 C 175.703125 100.429688 170.480469 97.945312 165.324219 98.054688 C 157.664062 98.214844 154.335938 101.527344 150.816406 105.027344 Z M 146.355469 109.8125 "/>
<path fill-rule="nonzero" fill="rgb(100%, 100%, 100%)" fill-opacity="1" d="M 190.96875 125.324219 C 190.804688 125.179688 174.507812 110.855469 170.8125 108.066406 C 168.675781 106.457031 167.488281 106.042969 166.238281 105.882812 C 165.585938 105.796875 164.6875 105.914062 164.058594 106.085938 C 162.335938 106.546875 160.082031 108.046875 158.082031 109.628906 C 156.007812 111.269531 154.054688 112.816406 152.246094 113.21875 C 149.933594 113.730469 147.109375 113.113281 145.824219 112.238281 C 145.304688 111.886719 144.9375 111.480469 144.761719 111.066406 C 144.289062 109.964844 145.167969 109.082031 145.3125 108.9375 L 149.828125 104.070312 C 150.351562 103.550781 150.882812 103.03125 151.421875 102.515625 C 149.96875 102.703125 148.625 103.070312 147.316406 103.429688 C 145.679688 103.886719 144.109375 104.320312 142.519531 104.316406 C 141.859375 104.3125 138.304688 103.722656 137.628906 103.539062 C 133.554688 102.414062 129.980469 101.320312 124.636719 98.8125 C 118.222656 103.566406 113.925781 109.519531 112.671875 116.082031 C 113.59375 116.328125 115.074219 116.773438 115.695312 116.914062 C 130.1875 120.167969 134.695312 123.5 135.511719 124.195312 C 136.402344 123.210938 137.679688 122.585938 139.109375 122.589844 C 140.714844 122.597656 142.15625 123.40625 143.035156 124.652344 C 143.867188 124 145.011719 123.441406 146.492188 123.445312 C 147.164062 123.445312 147.859375 123.570312 148.5625 123.8125 C 150.199219 124.378906 151.039062 125.46875 151.476562 126.457031 C 152.023438 126.210938 152.699219 126.027344 153.492188 126.03125 C 154.273438 126.03125 155.085938 126.214844 155.902344 126.570312 C 158.574219 127.722656 158.984375 130.347656 158.738281 132.328125 C 158.925781 132.304688 159.117188 132.296875 159.3125 132.296875 C 162.480469 132.308594 165.054688 134.886719 165.046875 138.058594 C 165.042969 139.039062 164.792969 139.960938 164.351562 140.769531 C 165.214844 141.257812 167.410156 142.359375 169.339844 142.121094 C 170.882812 141.929688 171.46875 141.402344 171.679688 141.105469 C 171.824219 140.902344 171.976562 140.667969 171.835938 140.496094 L 167.753906 135.941406 C 167.753906 135.941406 167.082031 135.300781 167.304688 135.058594 C 167.535156 134.804688 167.953125 135.167969 168.246094 135.414062 C 170.324219 137.160156 172.859375 139.789062 172.859375 139.789062 C 172.902344 139.816406 173.070312 140.152344 174.007812 140.320312 C 174.816406 140.46875 176.25 140.386719 177.242188 139.574219 C 177.496094 139.367188 177.746094 139.113281 177.953125 138.847656 C 177.9375 138.863281 177.925781 138.878906 177.910156 138.882812 C 178.957031 137.546875 177.796875 136.191406 177.796875 136.191406 L 173.035156 130.816406 C 173.035156 130.816406 172.355469 130.183594 172.585938 129.933594 C 172.792969 129.710938 173.234375 130.042969 173.535156 130.292969 C 175.042969 131.5625 177.175781 133.710938 179.214844 135.722656 C 179.617188 136.015625 181.410156 137.132812 183.800781 135.570312 C 185.246094 134.628906 185.539062 133.460938 185.5 132.582031 C 185.402344 131.417969 184.496094 130.585938 184.496094 130.585938 L 177.988281 124.015625 C 177.988281 124.015625 177.300781 123.425781 177.542969 123.128906 C 177.746094 122.878906 178.191406 123.242188 178.484375 123.488281 C 180.558594 125.230469 186.171875 130.398438 186.171875 130.398438 C 186.25 130.457031 188.191406 131.84375 190.597656 130.320312 C 191.457031 129.773438 192.007812 128.949219 192.058594 127.988281 C 192.140625 126.316406 190.96875 125.324219 190.96875 125.324219 "/>
<path fill-rule="nonzero" fill="rgb(100%, 100%, 100%)" fill-opacity="1" d="M 159.308594 133.570312 C 158.296875 133.554688 157.191406 134.152344 157.046875 134.0625 C 156.964844 134.011719 157.109375 133.605469 157.207031 133.371094 C 157.300781 133.136719 158.644531 129.132812 155.398438 127.734375 C 152.917969 126.660156 151.394531 127.859375 150.871094 128.398438 C 150.738281 128.542969 150.675781 128.53125 150.660156 128.351562 C 150.609375 127.628906 150.292969 125.675781 148.148438 125.015625 C 145.085938 124.070312 143.109375 126.203125 142.609375 126.976562 C 142.390625 125.230469 140.914062 123.867188 139.105469 123.863281 C 137.140625 123.859375 135.542969 125.445312 135.535156 127.410156 C 135.53125 129.375 137.121094 130.972656 139.085938 130.976562 C 140.039062 130.980469 140.90625 130.601562 141.550781 129.988281 C 141.570312 130.007812 141.574219 130.042969 141.566406 130.109375 C 141.414062 130.988281 141.132812 134.183594 144.476562 135.496094 C 145.816406 136.019531 146.960938 135.632812 147.910156 134.972656 C 148.191406 134.773438 148.238281 134.855469 148.195312 135.121094 C 148.074219 135.945312 148.222656 137.707031 150.6875 138.710938 C 152.566406 139.476562 153.679688 138.703125 154.410156 138.03125 C 154.726562 137.742188 154.8125 137.789062 154.828125 138.234375 C 154.910156 140.613281 156.882812 142.507812 159.285156 142.515625 C 161.757812 142.523438 163.765625 140.527344 163.773438 138.054688 C 163.78125 135.582031 161.78125 133.601562 159.308594 133.570312 "/>
<path fill-rule="nonzero" fill="rgb(17.060852%, 21.585083%, 51.881409%)" fill-opacity="1" d="M 159.289062 142.195312 C 157.050781 142.191406 155.230469 140.445312 155.152344 138.222656 C 155.148438 138.035156 155.128906 137.527344 154.703125 137.527344 C 154.527344 137.527344 154.375 137.632812 154.195312 137.792969 C 153.703125 138.246094 153.074219 138.710938 152.15625 138.707031 C 151.742188 138.707031 151.289062 138.609375 150.816406 138.414062 C 148.449219 137.449219 148.421875 135.824219 148.519531 135.171875 C 148.546875 134.996094 148.554688 134.816406 148.433594 134.675781 L 148.289062 134.542969 L 148.140625 134.542969 C 148.019531 134.542969 147.898438 134.589844 147.730469 134.707031 C 147.042969 135.1875 146.386719 135.417969 145.71875 135.417969 C 145.351562 135.417969 144.976562 135.34375 144.597656 135.199219 C 141.484375 133.976562 141.738281 131.035156 141.890625 130.152344 C 141.914062 129.96875 141.871094 129.832031 141.757812 129.742188 L 141.535156 129.558594 L 141.328125 129.753906 C 140.722656 130.335938 139.925781 130.65625 139.09375 130.65625 C 137.308594 130.648438 135.859375 129.195312 135.863281 127.410156 C 135.867188 125.625 137.324219 124.179688 139.109375 124.183594 C 140.722656 124.1875 142.09375 125.40625 142.296875 127.015625 L 142.40625 127.882812 L 142.882812 127.152344 C 142.9375 127.066406 144.25 125.089844 146.652344 125.097656 C 147.109375 125.101562 147.582031 125.175781 148.058594 125.324219 C 149.972656 125.910156 150.292969 127.648438 150.34375 128.375 C 150.375 128.796875 150.675781 128.816406 150.734375 128.816406 C 150.902344 128.816406 151.023438 128.710938 151.109375 128.621094 C 151.472656 128.246094 152.261719 127.617188 153.492188 127.621094 C 154.058594 127.625 154.65625 127.757812 155.277344 128.027344 C 158.320312 129.34375 156.929688 133.210938 156.914062 133.25 C 156.648438 133.890625 156.640625 134.175781 156.882812 134.339844 L 157.003906 134.398438 L 157.09375 134.398438 C 157.230469 134.398438 157.402344 134.339844 157.683594 134.242188 C 158.101562 134.101562 158.726562 133.886719 159.3125 133.890625 C 161.605469 133.917969 163.464844 135.789062 163.457031 138.054688 C 163.453125 140.347656 161.582031 142.203125 159.289062 142.195312 M 191.601562 123.617188 C 186.582031 119.214844 174.980469 109.082031 171.839844 106.710938 C 170.042969 105.355469 168.816406 104.640625 167.742188 104.316406 C 167.257812 104.167969 166.585938 104 165.726562 103.996094 C 164.925781 103.996094 164.0625 104.140625 163.167969 104.421875 C 161.128906 105.0625 159.097656 106.667969 157.136719 108.222656 L 157.035156 108.300781 C 155.203125 109.75 153.316406 111.246094 151.886719 111.5625 C 151.261719 111.703125 150.621094 111.773438 149.980469 111.773438 C 148.378906 111.765625 146.941406 111.300781 146.40625 110.613281 C 146.316406 110.5 146.375 110.316406 146.585938 110.050781 L 146.609375 110.015625 L 151.046875 105.257812 C 154.519531 101.800781 157.800781 98.535156 165.339844 98.378906 C 165.460938 98.375 165.589844 98.371094 165.714844 98.371094 C 170.402344 98.386719 175.085938 100.496094 175.613281 100.742188 C 180.003906 102.894531 184.542969 103.996094 189.105469 104.007812 C 193.863281 104.019531 198.769531 102.855469 203.933594 100.492188 C 203.359375 100.003906 202.761719 99.53125 202.144531 99.070312 C 197.609375 101.023438 193.289062 102.007812 189.121094 101.996094 C 184.867188 101.980469 180.621094 100.949219 176.496094 98.929688 C 176.277344 98.824219 171.109375 96.371094 165.71875 96.355469 C 165.578125 96.355469 165.4375 96.359375 165.292969 96.359375 C 158.964844 96.496094 155.394531 98.734375 152.992188 100.695312 C 150.664062 100.75 148.648438 101.304688 146.855469 101.804688 C 145.257812 102.242188 143.878906 102.625 142.535156 102.621094 C 141.980469 102.617188 140.980469 102.566406 140.894531 102.5625 C 139.34375 102.511719 131.554688 100.582031 125.359375 98.222656 C 124.726562 98.667969 124.117188 99.128906 123.523438 99.601562 C 129.992188 102.269531 137.871094 104.34375 140.359375 104.507812 C 141.050781 104.554688 141.785156 104.636719 142.527344 104.636719 C 144.171875 104.640625 145.8125 104.183594 147.402344 103.742188 C 148.34375 103.480469 149.382812 103.195312 150.472656 102.992188 C 150.179688 103.277344 149.890625 103.5625 149.597656 103.855469 L 145.089844 108.707031 C 144.734375 109.066406 143.964844 110.015625 144.46875 111.195312 C 144.667969 111.667969 145.078125 112.121094 145.648438 112.503906 C 146.71875 113.230469 148.636719 113.722656 150.417969 113.726562 C 151.09375 113.730469 151.734375 113.664062 152.320312 113.53125 C 154.207031 113.117188 156.1875 111.542969 158.285156 109.882812 C 159.957031 108.5625 162.332031 106.882812 164.144531 106.394531 C 164.65625 106.257812 165.277344 106.171875 165.777344 106.171875 C 165.925781 106.175781 166.066406 106.179688 166.199219 106.199219 C 167.398438 106.355469 168.558594 106.765625 170.625 108.324219 C 174.308594 111.105469 190.605469 125.425781 190.765625 125.566406 C 190.777344 125.574219 191.816406 126.476562 191.742188 127.96875 C 191.699219 128.800781 191.234375 129.539062 190.429688 130.050781 C 189.734375 130.492188 189.011719 130.714844 188.285156 130.714844 C 187.195312 130.710938 186.445312 130.195312 186.394531 130.160156 C 186.335938 130.113281 180.75 124.96875 178.699219 123.242188 C 178.371094 122.96875 178.050781 122.722656 177.730469 122.722656 C 177.558594 122.722656 177.40625 122.796875 177.300781 122.921875 C 176.976562 123.320312 177.339844 123.875 177.765625 124.238281 L 184.285156 130.824219 C 184.296875 130.832031 185.097656 131.589844 185.183594 132.597656 C 185.234375 133.6875 184.710938 134.597656 183.628906 135.300781 C 182.855469 135.808594 182.074219 136.0625 181.308594 136.0625 C 180.304688 136.058594 179.601562 135.601562 179.445312 135.492188 L 178.511719 134.570312 C 176.800781 132.878906 175.035156 131.128906 173.742188 130.046875 C 173.429688 129.785156 173.089844 129.539062 172.769531 129.539062 C 172.609375 129.539062 172.46875 129.597656 172.359375 129.710938 C 172.210938 129.878906 172.105469 130.171875 172.472656 130.660156 C 172.625 130.863281 172.804688 131.03125 172.804688 131.03125 L 177.5625 136.398438 C 177.601562 136.449219 178.539062 137.570312 177.664062 138.683594 L 177.492188 138.898438 C 177.351562 139.054688 177.195312 139.199219 177.050781 139.324219 C 176.234375 139.992188 175.148438 140.058594 174.71875 140.058594 C 174.488281 140.058594 174.265625 140.039062 174.070312 140.003906 C 173.605469 139.917969 173.285156 139.785156 173.132812 139.605469 L 173.074219 139.542969 C 172.816406 139.273438 170.417969 136.8125 168.429688 135.148438 C 168.171875 134.929688 167.84375 134.652344 167.507812 134.652344 C 167.339844 134.652344 167.1875 134.714844 167.074219 134.839844 C 166.679688 135.273438 167.269531 135.917969 167.519531 136.15625 L 171.578125 140.648438 C 171.570312 140.6875 171.523438 140.78125 171.421875 140.921875 C 171.277344 141.125 170.78125 141.617188 169.304688 141.796875 C 169.128906 141.820312 168.945312 141.828125 168.765625 141.828125 C 167.242188 141.824219 165.625 141.085938 164.785156 140.640625 C 165.171875 139.835938 165.367188 138.949219 165.371094 138.0625 C 165.378906 134.714844 162.667969 131.984375 159.320312 131.972656 C 159.25 131.972656 159.171875 131.976562 159.097656 131.980469 C 159.214844 130.449219 159.003906 127.554688 156.035156 126.273438 C 155.183594 125.902344 154.328125 125.710938 153.5 125.710938 C 152.851562 125.707031 152.226562 125.820312 151.640625 126.042969 C 151.027344 124.84375 150.007812 123.972656 148.675781 123.515625 C 147.9375 123.257812 147.207031 123.125 146.496094 123.125 C 145.257812 123.121094 144.121094 123.484375 143.101562 124.203125 C 142.132812 122.988281 140.664062 122.269531 139.117188 122.269531 C 137.761719 122.265625 136.457031 122.804688 135.488281 123.757812 C 134.226562 122.789062 129.207031 119.585938 115.773438 116.503906 C 115.121094 116.351562 113.628906 115.921875 112.714844 115.652344 C 112.5625 116.382812 112.441406 117.117188 112.367188 117.859375 C 112.367188 117.859375 114.84375 118.457031 115.328125 118.566406 C 129.058594 121.648438 133.589844 124.832031 134.355469 125.433594 C 134.09375 126.054688 133.957031 126.726562 133.953125 127.40625 C 133.945312 130.242188 136.246094 132.558594 139.085938 132.570312 C 139.402344 132.570312 139.71875 132.542969 140.03125 132.488281 C 140.453125 134.574219 141.8125 136.160156 143.902344 136.976562 C 144.511719 137.214844 145.128906 137.335938 145.734375 137.335938 C 146.125 137.339844 146.519531 137.289062 146.90625 137.191406 C 147.289062 138.171875 148.152344 139.394531 150.09375 140.1875 C 150.773438 140.460938 151.453125 140.605469 152.113281 140.609375 C 152.652344 140.609375 153.183594 140.515625 153.6875 140.332031 C 154.609375 142.597656 156.816406 144.101562 159.285156 144.109375 C 160.917969 144.113281 162.492188 143.449219 163.636719 142.277344 C 164.617188 142.820312 166.679688 143.8125 168.769531 143.820312 C 169.039062 143.820312 169.296875 143.804688 169.546875 143.773438 C 171.621094 143.515625 172.59375 142.707031 173.035156 142.074219 C 173.117188 141.964844 173.1875 141.847656 173.253906 141.726562 C 173.742188 141.871094 174.28125 141.984375 174.898438 141.988281 C 176.03125 141.992188 177.117188 141.605469 178.21875 140.808594 C 179.300781 140.03125 180.074219 138.917969 180.183594 137.964844 C 180.1875 137.953125 180.1875 137.9375 180.191406 137.925781 C 180.554688 138 180.925781 138.039062 181.300781 138.039062 C 182.46875 138.042969 183.617188 137.683594 184.714844 136.964844 C 186.832031 135.585938 187.203125 133.773438 187.171875 132.585938 C 187.542969 132.664062 187.917969 132.707031 188.292969 132.707031 C 189.390625 132.710938 190.46875 132.382812 191.492188 131.730469 C 192.808594 130.894531 193.597656 129.613281 193.722656 128.121094 C 193.808594 127.105469 193.558594 126.082031 193.023438 125.199219 C 196.570312 123.679688 204.679688 120.742188 214.222656 118.617188 C 214.167969 117.875 214.0625 117.144531 213.929688 116.417969 C 202.382812 118.953125 193.761719 122.660156 191.601562 123.617188 "/>
<path fill-rule="nonzero" fill="rgb(17.060852%, 21.585083%, 51.881409%)" fill-opacity="1" d="M 238.945312 193.507812 C 238.011719 194.738281 236.683594 195.351562 234.945312 195.347656 C 233.214844 195.34375 231.878906 194.726562 230.945312 193.492188 C 230.011719 192.257812 229.550781 190.503906 229.554688 188.230469 C 229.558594 185.964844 230.027344 184.214844 230.96875 182.992188 C 231.90625 181.765625 233.246094 181.15625 234.976562 181.160156 C 236.714844 181.164062 238.042969 181.78125 238.96875 183.007812 C 239.894531 184.238281 240.355469 185.988281 240.347656 188.257812 C 240.34375 190.527344 239.875 192.28125 238.945312 193.507812 M 243.71875 179.765625 C 241.808594 177.363281 238.90625 176.160156 235.007812 176.152344 C 231.113281 176.140625 228.203125 177.332031 226.285156 179.726562 C 224.367188 182.117188 223.402344 184.949219 223.394531 188.21875 C 223.386719 191.546875 224.335938 194.390625 226.246094 196.757812 C 228.152344 199.121094 231.058594 200.3125 234.953125 200.320312 C 238.851562 200.328125 241.761719 199.152344 243.679688 196.796875 C 245.597656 194.4375 246.5625 191.597656 246.566406 188.269531 C 246.574219 185 245.628906 182.164062 243.71875 179.765625 "/>
<path fill-rule="nonzero" fill="rgb(17.060852%, 21.585083%, 51.881409%)" fill-opacity="1" d="M 191.765625 190.605469 C 191.71875 192.59375 191.148438 193.960938 190.050781 194.710938 C 188.953125 195.457031 187.757812 195.832031 186.460938 195.832031 C 185.636719 195.828125 184.945312 195.597656 184.371094 195.148438 C 183.800781 194.695312 183.515625 193.960938 183.519531 192.941406 C 183.523438 191.804688 183.992188 190.960938 184.929688 190.421875 C 185.488281 190.105469 186.398438 189.832031 187.664062 189.617188 L 189.019531 189.367188 C 189.695312 189.242188 190.230469 189.105469 190.617188 188.960938 C 191.007812 188.820312 191.390625 188.632812 191.769531 188.394531 Z M 194.808594 177.648438 C 192.871094 176.660156 190.648438 176.160156 188.152344 176.15625 C 184.308594 176.144531 181.59375 177.144531 180.011719 179.140625 C 179.015625 180.421875 178.453125 182.050781 178.320312 184.042969 L 184.0625 184.054688 C 184.203125 183.179688 184.488281 182.484375 184.914062 181.96875 C 185.507812 181.277344 186.511719 180.929688 187.9375 180.933594 C 189.207031 180.9375 190.167969 181.113281 190.824219 181.472656 C 191.480469 181.828125 191.804688 182.472656 191.804688 183.402344 C 191.800781 184.171875 191.375 184.730469 190.519531 185.09375 C 190.042969 185.300781 189.25 185.472656 188.140625 185.609375 L 186.101562 185.851562 C 183.792969 186.140625 182.035156 186.625 180.84375 187.304688 C 178.667969 188.554688 177.578125 190.570312 177.570312 193.371094 C 177.566406 195.523438 178.234375 197.195312 179.585938 198.371094 C 180.929688 199.546875 182.644531 200.046875 184.714844 200.148438 C 197.695312 200.753906 197.566406 193.335938 197.6875 191.792969 L 197.707031 183.25 C 197.710938 180.511719 196.746094 178.644531 194.808594 177.648438 "/>
<path fill-rule="nonzero" fill="rgb(17.060852%, 21.585083%, 51.881409%)" fill-opacity="1" d="M 165.199219 181.191406 C 166.683594 181.195312 167.769531 181.652344 168.472656 182.570312 C 168.953125 183.25 169.253906 184.015625 169.367188 184.863281 L 175.773438 184.878906 C 175.429688 181.648438 174.300781 179.390625 172.398438 178.109375 C 170.484375 176.832031 168.035156 176.183594 165.035156 176.179688 C 161.507812 176.171875 158.738281 177.25 156.730469 179.40625 C 154.71875 181.566406 153.707031 184.589844 153.699219 188.476562 C 153.691406 191.921875 154.59375 194.734375 156.40625 196.898438 C 158.214844 199.066406 161.042969 200.15625 164.890625 200.164062 C 168.742188 200.171875 171.652344 198.882812 173.617188 196.292969 C 174.851562 194.6875 175.542969 192.984375 175.691406 191.179688 L 169.308594 191.164062 C 169.175781 192.359375 168.800781 193.328125 168.179688 194.078125 C 167.5625 194.820312 166.527344 195.195312 165.058594 195.191406 C 162.992188 195.1875 161.585938 194.242188 160.84375 192.351562 C 160.4375 191.34375 160.230469 190.007812 160.238281 188.347656 C 160.238281 186.605469 160.449219 185.210938 160.863281 184.15625 C 161.644531 182.175781 163.089844 181.1875 165.199219 181.191406 "/>
<path fill-rule="nonzero" fill="rgb(17.060852%, 21.585083%, 51.881409%)" fill-opacity="1" d="M 152.011719 176.148438 C 138.859375 176.121094 139.609375 187.769531 139.609375 187.769531 L 139.582031 199.597656 L 145.550781 199.609375 L 145.578125 188.515625 C 145.582031 186.699219 145.816406 185.351562 146.273438 184.476562 C 147.09375 182.925781 148.695312 182.152344 151.082031 182.15625 C 151.265625 182.15625 151.5 182.167969 151.792969 182.183594 C 152.082031 182.195312 152.414062 182.222656 152.792969 182.269531 L 152.804688 176.195312 C 152.539062 176.175781 152.367188 176.167969 152.296875 176.160156 C 152.214844 176.152344 152.125 176.148438 152.011719 176.148438 "/>
<path fill-rule="nonzero" fill="rgb(17.060852%, 21.585083%, 51.881409%)" fill-opacity="1" d="M 122.046875 182.261719 C 122.886719 181.402344 124.066406 180.972656 125.589844 180.976562 C 126.988281 180.980469 128.160156 181.386719 129.105469 182.207031 C 130.046875 183.023438 130.570312 184.21875 130.671875 185.789062 L 120.460938 185.765625 C 120.675781 184.292969 121.207031 183.125 122.046875 182.261719 M 130.046875 193.394531 C 129.792969 193.753906 129.523438 194.058594 129.226562 194.296875 C 128.382812 194.988281 127.234375 195.195312 125.886719 195.195312 C 124.609375 195.191406 123.613281 194.996094 122.710938 194.421875 C 121.222656 193.503906 120.390625 191.953125 120.304688 189.679688 L 136.824219 189.714844 C 136.851562 187.757812 136.789062 186.261719 136.636719 185.21875 C 136.363281 183.441406 135.761719 181.871094 134.839844 180.523438 C 133.8125 178.992188 132.503906 177.875 130.929688 177.160156 C 129.347656 176.453125 127.570312 176.09375 125.597656 176.085938 C 122.273438 176.082031 119.574219 177.125 117.484375 179.210938 C 115.398438 181.304688 114.34375 184.3125 114.335938 188.238281 C 114.328125 192.433594 115.476562 195.460938 117.78125 197.328125 C 120.078125 199.191406 122.742188 200.128906 125.757812 200.136719 C 129.414062 200.144531 132.261719 199.046875 134.296875 196.84375 C 135.394531 195.6875 136.085938 194.539062 136.375 193.410156 Z M 130.046875 193.394531 "/>
<path fill-rule="nonzero" fill="rgb(17.060852%, 21.585083%, 51.881409%)" fill-opacity="1" d="M 111.914062 199.53125 L 106.460938 199.519531 L 106.492188 185.792969 C 106.496094 184.535156 106.089844 181.550781 102.492188 181.542969 C 100.09375 181.539062 98.351562 183.265625 98.347656 185.773438 L 98.316406 199.503906 L 92.859375 199.488281 L 92.886719 185.761719 C 92.890625 184.507812 92.527344 181.523438 88.933594 181.515625 C 86.492188 181.507812 84.792969 183.234375 84.789062 185.742188 L 84.757812 199.472656 L 79.300781 199.460938 L 79.332031 185.859375 C 79.34375 180.195312 83.113281 175.914062 88.945312 175.929688 C 91.839844 175.933594 94.191406 177.15625 95.71875 179.105469 C 97.332031 177.164062 99.730469 175.953125 102.503906 175.957031 C 108.457031 175.972656 111.957031 180.09375 111.945312 185.933594 Z M 111.914062 199.53125 "/>
<path fill-rule="nonzero" fill="rgb(17.060852%, 21.585083%, 51.881409%)" fill-opacity="1" d="M 214.445312 193.503906 C 213.570312 194.75 212.289062 195.371094 210.613281 195.367188 C 208.933594 195.363281 207.683594 194.730469 206.867188 193.476562 C 206.042969 192.21875 205.632812 190.390625 205.640625 188.296875 C 205.644531 186.351562 206.050781 184.726562 206.867188 183.417969 C 207.679688 182.113281 208.953125 181.457031 210.6875 181.460938 C 211.824219 181.464844 212.820312 181.824219 213.683594 182.546875 C 215.078125 183.746094 215.773438 185.886719 215.769531 188.660156 C 215.761719 190.644531 215.320312 192.257812 214.445312 193.503906 M 221.660156 169.136719 C 221.660156 169.136719 215.648438 168.480469 215.636719 173.308594 L 215.621094 179.703125 C 214.957031 178.632812 214.09375 177.792969 213.027344 177.191406 C 211.960938 176.585938 210.742188 176.28125 209.367188 176.277344 C 206.382812 176.269531 204.003906 177.375 202.214844 179.589844 C 200.425781 181.804688 199.53125 185.003906 199.523438 188.871094 C 199.515625 192.226562 200.410156 194.984375 202.214844 197.128906 C 204.023438 199.273438 207.570312 200.21875 210.722656 200.226562 C 221.710938 200.25 221.609375 190.828125 221.609375 190.828125 Z M 221.660156 169.136719 "/>
<path fill-rule="nonzero" fill="rgb(17.060852%, 21.585083%, 51.881409%)" fill-opacity="1" d="M 132.167969 219.488281 C 132.171875 217.234375 131.738281 215.5 130.859375 214.28125 C 129.980469 213.070312 128.722656 212.457031 127.085938 212.453125 C 125.503906 212.449219 124.269531 213.058594 123.382812 214.265625 C 122.5625 215.363281 122.152344 217.101562 122.144531 219.46875 C 122.140625 221.667969 122.574219 223.3125 123.453125 224.414062 C 124.328125 225.628906 125.589844 226.242188 127.226562 226.246094 C 128.75 226.25 129.953125 225.644531 130.835938 224.429688 C 131.722656 223.21875 132.160156 221.578125 132.167969 219.488281 M 122.109375 235.644531 C 122.109375 236.457031 121.8125 237.148438 121.222656 237.722656 C 120.636719 238.300781 119.933594 238.589844 119.109375 238.585938 L 116.125 238.582031 L 116.171875 217.804688 C 116.179688 213.761719 117.546875 211.234375 119.792969 209.53125 C 121.277344 208.402344 123.488281 207.328125 127.625 207.335938 C 130.414062 207.34375 133.679688 208.433594 135.441406 210.59375 C 137.417969 213.019531 138.234375 215.71875 138.230469 219.242188 C 138.21875 222.886719 137.335938 225.828125 135.574219 228.082031 C 133.8125 230.28125 131.550781 231.371094 128.796875 231.363281 C 127.335938 231.359375 126.046875 231.097656 124.933594 230.578125 C 123.761719 229.996094 122.828125 229.097656 122.128906 227.878906 Z M 122.109375 235.644531 "/>
<path fill-rule="nonzero" fill="rgb(17.060852%, 21.585083%, 51.881409%)" fill-opacity="1" d="M 168.003906 219.574219 C 167.996094 223.558594 169.144531 225.769531 171.445312 226.210938 C 173.742188 226.640625 175.445312 226.113281 176.539062 224.613281 C 177.058594 223.984375 177.433594 222.984375 177.667969 221.632812 C 177.898438 220.277344 177.921875 218.929688 177.722656 217.605469 C 177.523438 216.269531 177.050781 215.085938 176.304688 214.042969 C 175.558594 213.003906 174.46875 212.476562 173.027344 212.472656 C 171.070312 212.46875 169.746094 213.191406 169.054688 214.632812 C 168.355469 216.074219 168.011719 217.722656 168.003906 219.574219 M 177.824219 229.558594 L 177.828125 228.089844 C 176.789062 229.707031 175.390625 230.710938 173.632812 231.113281 C 171.875 231.507812 170.132812 231.363281 168.417969 230.664062 C 166.6875 229.96875 165.207031 228.679688 163.972656 226.800781 C 162.742188 224.914062 162.128906 222.445312 162.136719 219.382812 C 162.144531 215.804688 162.972656 212.898438 164.613281 210.679688 C 166.261719 208.460938 168.898438 207.453125 172.523438 207.359375 C 176.097656 207.273438 178.171875 208.085938 180.203125 209.632812 C 182.421875 211.328125 183.730469 213.917969 183.722656 217.960938 L 183.695312 230.183594 C 183.695312 234.070312 180.964844 241.273438 172.449219 240.644531 C 167.171875 240.25 164.246094 238.078125 162.625 233.167969 L 168.925781 233.183594 C 169.382812 233.992188 170.085938 234.613281 171.039062 235.046875 C 171.984375 235.484375 172.9375 235.601562 173.878906 235.398438 C 174.832031 235.199219 175.695312 234.640625 176.480469 233.71875 C 177.257812 232.796875 177.703125 231.410156 177.824219 229.558594 "/>
<path fill-rule="nonzero" fill="rgb(17.060852%, 21.585083%, 51.881409%)" fill-opacity="1" d="M 153.996094 221.953125 C 153.953125 223.945312 153.378906 225.3125 152.28125 226.0625 C 151.183594 226.816406 149.980469 227.1875 148.683594 227.1875 C 147.859375 227.183594 147.164062 226.953125 146.59375 226.503906 C 146.019531 226.046875 145.734375 225.308594 145.738281 224.292969 C 145.742188 223.15625 146.210938 222.308594 147.152344 221.769531 C 147.707031 221.449219 148.621094 221.179688 149.890625 220.960938 L 151.25 220.714844 C 151.925781 220.585938 152.460938 220.453125 152.84375 220.304688 C 153.238281 220.164062 153.621094 219.972656 154 219.734375 Z M 157.042969 208.976562 C 155.101562 207.988281 152.878906 207.480469 150.375 207.476562 C 146.527344 207.46875 143.808594 208.46875 142.222656 210.46875 C 141.226562 211.75 140.660156 213.386719 140.527344 215.378906 L 146.28125 215.390625 C 146.425781 214.511719 146.707031 213.816406 147.132812 213.304688 C 147.726562 212.609375 148.738281 212.261719 150.160156 212.265625 C 151.4375 212.269531 152.398438 212.445312 153.054688 212.804688 C 153.710938 213.160156 154.039062 213.808594 154.035156 214.742188 C 154.035156 215.507812 153.605469 216.070312 152.746094 216.433594 C 152.269531 216.640625 151.476562 216.8125 150.367188 216.949219 L 148.324219 217.191406 C 146.011719 217.480469 144.25 217.964844 143.058594 218.648438 C 140.878906 219.898438 139.785156 221.921875 139.78125 224.722656 C 139.777344 226.878906 140.445312 228.550781 141.796875 229.730469 C 143.144531 230.910156 144.863281 231.410156 146.933594 231.511719 C 159.9375 232.121094 159.804688 224.6875 159.929688 223.140625 L 159.945312 214.585938 C 159.953125 211.839844 158.984375 209.972656 157.042969 208.976562 "/>
<path fill-rule="nonzero" fill="rgb(17.060852%, 21.585083%, 51.881409%)" fill-opacity="1" d="M 201.570312 224.734375 C 200.640625 225.96875 199.304688 226.582031 197.566406 226.578125 C 195.832031 226.574219 194.496094 225.953125 193.5625 224.714844 C 192.625 223.484375 192.160156 221.726562 192.167969 219.453125 C 192.171875 217.179688 192.640625 215.429688 193.585938 214.203125 C 194.523438 212.976562 195.863281 212.367188 197.597656 212.371094 C 199.335938 212.375 200.667969 212.992188 201.59375 214.21875 C 202.523438 215.449219 202.984375 217.203125 202.976562 219.476562 C 202.972656 221.75 202.503906 223.507812 201.570312 224.734375 M 206.355469 210.972656 C 204.441406 208.5625 201.53125 207.359375 197.628906 207.347656 C 193.730469 207.339844 190.816406 208.53125 188.890625 210.929688 C 186.96875 213.328125 186.003906 216.164062 185.996094 219.4375 C 185.988281 222.769531 186.941406 225.617188 188.851562 227.992188 C 190.765625 230.355469 193.675781 231.550781 197.574219 231.558594 C 201.476562 231.570312 204.390625 230.386719 206.316406 228.03125 C 208.234375 225.664062 209.199219 222.820312 209.207031 219.488281 C 209.214844 216.214844 208.265625 213.375 206.355469 210.972656 "/>
</svg>
